<?xml version="1.0" encoding="UTF-8"?><svg id="b" xmlns="http://www.w3.org/2000/svg" viewBox="0 0 96.15 72.46"><g id="c"><g><path d="m85.72,25.77c-4.32,0-7.84,5.52-7.84,12.3s3.52,12.3,7.84,12.3,7.84-5.52,7.84-12.3c0-6.79-3.52-12.3-7.84-12.3Z" style="fill:#fff;"/><path d="m85.72,23.18c-5.75,0-10.43,6.68-10.43,14.89s4.68,14.89,10.43,14.89,10.43-6.68,10.43-14.89c0-8.21-4.68-14.89-10.43-14.89Zm0,27.19c-4.32,0-7.84-5.52-7.84-12.3s3.52-12.3,7.84-12.3,7.84,5.52,7.84,12.3c0,6.78-3.52,12.3-7.84,12.3Z"/><path d="m10.43,25.77c-4.32,0-7.84,5.52-7.84,12.3s3.52,12.3,7.84,12.3,7.84-5.52,7.84-12.3-3.51-12.3-7.84-12.3Z" style="fill:#fff;"/><path d="m10.43,23.18c-5.75,0-10.43,6.68-10.43,14.89s4.68,14.89,10.43,14.89,10.43-6.68,10.43-14.89-4.68-14.89-10.43-14.89Zm0,27.19c-4.32,0-7.84-5.52-7.84-12.3s3.52-12.3,7.84-12.3,7.84,5.52,7.84,12.3-3.51,12.3-7.84,12.3Z"/></g><g><path d="m85.72,3.89c-.94,0-1.71.77-1.71,1.71s.77,1.71,1.71,1.71,1.71-.77,1.71-1.71-.77-1.71-1.71-1.71Z" style="fill:#fff;"/><path d="m85.72,1.3c-2.37,0-4.3,1.93-4.3,4.3s1.93,4.3,4.3,4.3,4.3-1.93,4.3-4.3-1.93-4.3-4.3-4.3Zm0,6.02c-.94,0-1.71-.77-1.71-1.71s.77-1.71,1.71-1.71,1.71.77,1.71,1.71-.77,1.71-1.71,1.71Z"/><rect x="84.42" y="7.89" width="2.59" height="17.08"/></g><g><path d="m48.08,2.58C27.25,2.58,10.3,19.88,10.3,41.15c0,24.98,23.67,28.71,37.78,28.71s37.78-3.73,37.78-28.71c0-21.26-16.95-38.57-37.78-38.57Z" style="fill:#fff;"/><path d="m48.08,0C25.82,0,7.71,18.47,7.71,41.16c0,20.19,14.34,31.3,40.37,31.3s40.37-11.12,40.37-31.3c0-22.7-18.11-41.16-40.37-41.16ZM10.29,41.16C10.29,19.89,27.24,2.59,48.07,2.59s37.78,17.3,37.78,38.57c0,24.98-23.67,28.71-37.78,28.71-14.11,0-37.78-3.73-37.78-28.71Z"/><path d="m57.66,62.12h-19.17c-12.37,0-22.4-10.03-22.4-22.4h0c0-12.37,10.03-22.4,22.4-22.4h19.17c12.37,0,22.4,10.03,22.4,22.4h0c0,12.37-10.03,22.4-22.4,22.4Z"/><path d="m48.08,37.8c-3.52-5.73-9.83-9.58-17.03-9.58v6.47c7.45,0,13.51,6.06,13.51,13.51v5.23h7.03v-5.23c0-7.45,6.06-13.51,13.51-13.51v-6.47c-7.2,0-13.51,3.84-17.02,9.58Z" style="fill:#64ff4e;"/></g></g></svg>